<svg width="977" height="609" viewBox="0 0 977 609" fill="none" xmlns="http://www.w3.org/2000/svg">
<g filter="url(#filter0_d_91_211)">
<mask id="path-1-inside-1_91_211" fill="white">
<path fill-rule="evenodd" clip-rule="evenodd" d="M39.2589 10.4531L10.677 39.5033V567.366H10.6758V589.421H55.4161L58.0479 592.082L65.9433 584.858L70.7682 589.421H135.686L141.388 584.858H172.969L182.619 593.984H215.078L219.903 598.546L232.184 587.9H303.889L306.752 585.238L309.383 587.9H437.902L445.359 581.055L458.957 593.603H470.8L476.274 589.397H487.906V567.621L487.906 589.421H532.728L535.364 592.082L543.274 584.858L548.108 589.421H613.143L618.855 584.858H650.494L660.162 593.984H692.679L697.513 598.546L709.817 587.9H781.652L784.519 585.238L787.156 587.9H915.908L923.378 581.055L937.001 593.603H948.865L954.35 589.397H966.003V567.366H965.884V10.4531H39.2589ZM784.519 585.238L788.914 581.055H780.125L784.519 585.238ZM306.752 585.238L311.138 581.055H302.365L306.752 585.238Z"/>
</mask>
<path fill-rule="evenodd" clip-rule="evenodd" d="M39.2589 10.4531L10.677 39.5033V567.366H10.6758V589.421H55.4161L58.0479 592.082L65.9433 584.858L70.7682 589.421H135.686L141.388 584.858H172.969L182.619 593.984H215.078L219.903 598.546L232.184 587.9H303.889L306.752 585.238L309.383 587.9H437.902L445.359 581.055L458.957 593.603H470.8L476.274 589.397H487.906V567.621L487.906 589.421H532.728L535.364 592.082L543.274 584.858L548.108 589.421H613.143L618.855 584.858H650.494L660.162 593.984H692.679L697.513 598.546L709.817 587.9H781.652L784.519 585.238L787.156 587.9H915.908L923.378 581.055L937.001 593.603H948.865L954.35 589.397H966.003V567.366H965.884V10.4531H39.2589ZM784.519 585.238L788.914 581.055H780.125L784.519 585.238ZM306.752 585.238L311.138 581.055H302.365L306.752 585.238Z" fill="black"/>
<path d="M10.677 39.5033L7.11287 35.9966L5.67701 37.456V39.5033H10.677ZM39.2589 10.4531V5.45312H37.164L35.6947 6.94644L39.2589 10.4531ZM10.677 567.366V572.366H15.677V567.366H10.677ZM10.6758 567.366V562.366H5.67578V567.366H10.6758ZM10.6758 589.421H5.67578V594.421H10.6758V589.421ZM55.4161 589.421L58.9716 585.905L57.5038 584.421H55.4161V589.421ZM58.0479 592.082L54.4924 595.598L57.8745 599.018L61.4233 595.771L58.0479 592.082ZM65.9433 584.858L69.3788 581.225L65.9994 578.029L62.5679 581.169L65.9433 584.858ZM70.7682 589.421L67.3327 593.053L68.7784 594.421H70.7682V589.421ZM135.686 589.421V594.421H137.44L138.81 593.324L135.686 589.421ZM141.388 584.858V579.858H139.634L138.264 580.954L141.388 584.858ZM172.969 584.858L176.405 581.225L174.959 579.858H172.969V584.858ZM182.619 593.984L179.184 597.616L180.629 598.984H182.619V593.984ZM215.078 593.984L218.513 590.351L217.068 588.984H215.078V593.984ZM219.903 598.546L216.467 602.179L219.757 605.29L223.178 602.324L219.903 598.546ZM232.184 587.9V582.9H230.319L228.909 584.122L232.184 587.9ZM303.889 587.9V592.9H305.855L307.294 591.561L303.889 587.9ZM309.383 587.9L305.828 591.415L307.296 592.9H309.383V587.9ZM437.902 587.9V592.9H439.849L441.283 591.583L437.902 587.9ZM445.359 581.055L448.75 577.381L445.368 574.26L441.978 577.372L445.359 581.055ZM458.957 593.603L455.566 597.278L457.002 598.603H458.957V593.603ZM470.8 593.603V598.603H472.498L473.846 597.568L470.8 593.603ZM476.274 589.397V584.397H474.576L473.228 585.432L476.274 589.397ZM487.906 589.397V594.397H492.906V589.397H487.906ZM487.906 589.421H482.906V594.421H487.906V589.421ZM532.728 589.421L536.28 585.902L534.813 584.421H532.728V589.421ZM535.364 592.082L531.812 595.601L535.191 599.012L538.736 595.774L535.364 592.082ZM543.274 584.858L546.706 581.222L543.33 578.035L539.902 581.166L543.274 584.858ZM548.108 589.421L544.675 593.056L546.12 594.421H548.108V589.421ZM613.143 589.421V594.421H614.895L616.263 593.327L613.143 589.421ZM618.855 584.858V579.858H617.104L615.735 580.951L618.855 584.858ZM650.494 584.858L653.926 581.222L652.481 579.858H650.494V584.858ZM660.162 593.984L656.729 597.619L658.174 598.984H660.162V593.984ZM692.679 593.984L696.111 590.348L694.666 588.984H692.679V593.984ZM697.513 598.546L694.081 602.182L697.367 605.285L700.785 602.327L697.513 598.546ZM709.817 587.9V582.9H707.954L706.545 584.119L709.817 587.9ZM781.652 587.9V592.9H783.615L785.054 591.564L781.652 587.9ZM787.156 587.9L783.604 591.418L785.071 592.9H787.156V587.9ZM915.908 587.9V592.9H917.852L919.286 591.586L915.908 587.9ZM923.378 581.055L926.766 577.378L923.387 574.265L920.001 577.369L923.378 581.055ZM937.001 593.603L933.613 597.281L935.049 598.603H937.001V593.603ZM948.865 593.603V598.603H950.561L951.908 597.571L948.865 593.603ZM954.35 589.397V584.397H952.654L951.307 585.43L954.35 589.397ZM966.003 589.397V594.397H971.003V589.397H966.003ZM966.003 567.366H971.003V562.366H966.003V567.366ZM965.884 567.366H960.884V572.366H965.884V567.366ZM965.884 10.4531H970.884V5.45312H965.884V10.4531ZM788.914 581.055L792.361 584.677L801.418 576.055H788.914V581.055ZM780.125 581.055V576.055H767.62L776.678 584.677L780.125 581.055ZM311.138 581.055L314.588 584.674L323.626 576.055H311.138V581.055ZM302.365 581.055V576.055H289.877L298.915 584.674L302.365 581.055ZM14.2412 43.01L42.823 13.9598L35.6947 6.94644L7.11287 35.9966L14.2412 43.01ZM15.677 567.366V39.5033H5.67701V567.366H15.677ZM10.677 562.366H10.6758V572.366H10.677V562.366ZM5.67578 567.366V589.421H15.6758V567.366H5.67578ZM10.6758 594.421H55.4161V584.421H10.6758V594.421ZM51.8606 592.936L54.4924 595.598L61.6034 588.567L58.9716 585.905L51.8606 592.936ZM61.4233 595.771L69.3187 588.546L62.5679 581.169L54.6725 588.394L61.4233 595.771ZM62.5077 588.49L67.3327 593.053L74.2037 585.788L69.3788 581.225L62.5077 588.49ZM70.7682 594.421H135.686V584.421H70.7682V594.421ZM138.81 593.324L144.512 588.762L138.264 580.954L132.562 585.517L138.81 593.324ZM141.388 589.858H172.969V579.858H141.388V589.858ZM169.534 588.49L179.184 597.616L186.055 590.351L176.405 581.225L169.534 588.49ZM182.619 598.984H215.078V588.984H182.619V598.984ZM211.642 597.616L216.467 602.179L223.338 594.914L218.513 590.351L211.642 597.616ZM223.178 602.324L235.459 591.678L228.909 584.122L216.628 594.768L223.178 602.324ZM232.184 592.9H303.889V582.9H232.184V592.9ZM307.294 591.561L310.157 588.899L303.347 581.576L300.484 584.238L307.294 591.561ZM303.196 588.753L305.828 591.415L312.939 584.384L310.307 581.722L303.196 588.753ZM309.383 592.9H437.902V582.9H309.383V592.9ZM441.283 591.583L448.74 584.739L441.978 577.372L434.521 584.216L441.283 591.583ZM441.968 584.73L455.566 597.278L462.347 589.929L448.75 577.381L441.968 584.73ZM458.957 598.603H470.8V588.603H458.957V598.603ZM473.846 597.568L479.321 593.362L473.228 585.432L467.753 589.638L473.846 597.568ZM476.274 594.397H487.906V584.397H476.274V594.397ZM492.906 589.397V567.621H482.906V589.397H492.906ZM482.906 567.621L482.906 589.421H492.906L492.906 567.621H482.906ZM487.906 594.421H532.728V584.421H487.906V594.421ZM529.175 592.939L531.812 595.601L538.917 588.564L536.28 585.902L529.175 592.939ZM538.736 595.774L546.646 588.549L539.902 581.166L531.992 588.391L538.736 595.774ZM539.842 588.494L544.675 593.056L551.54 585.785L546.706 581.222L539.842 588.494ZM548.108 594.421H613.143V584.421H548.108V594.421ZM616.263 593.327L621.976 588.764L615.735 580.951L610.022 585.514L616.263 593.327ZM618.855 589.858H650.494V579.858H618.855V589.858ZM647.062 588.494L656.729 597.619L663.594 590.348L653.926 581.222L647.062 588.494ZM660.162 598.984H692.679V588.984H660.162V598.984ZM689.247 597.619L694.081 602.182L700.945 594.911L696.111 590.348L689.247 597.619ZM700.785 602.327L713.089 591.681L706.545 584.119L694.241 594.766L700.785 602.327ZM709.817 592.9H781.652V582.9H709.817V592.9ZM785.054 591.564L787.921 588.902L781.118 581.573L778.25 584.235L785.054 591.564ZM780.967 588.757L783.604 591.418L790.708 584.381L788.072 581.719L780.967 588.757ZM787.156 592.9H915.908V582.9H787.156V592.9ZM919.286 591.586L926.756 584.742L920.001 577.369L912.53 584.213L919.286 591.586ZM919.991 584.733L933.613 597.281L940.388 589.926L926.766 577.378L919.991 584.733ZM937.001 598.603H948.865V588.603H937.001V598.603ZM951.908 597.571L957.393 593.365L951.307 585.43L945.822 589.636L951.908 597.571ZM954.35 594.397H966.003V584.397H954.35V594.397ZM971.003 589.397V567.366H961.003V589.397H971.003ZM966.003 562.366H965.884V572.366H966.003V562.366ZM960.884 10.4531V567.366H970.884V10.4531H960.884ZM39.2589 15.4531H965.884V5.45312H39.2589V15.4531ZM785.466 577.434L781.072 581.616L787.967 588.859L792.361 584.677L785.466 577.434ZM780.125 586.055H788.914V576.055H780.125V586.055ZM787.967 581.616L783.572 577.433L776.678 584.677L781.072 588.859L787.967 581.616ZM307.687 577.437L303.301 581.619L310.202 588.856L314.588 584.674L307.687 577.437ZM302.365 586.055H311.138V576.055H302.365V586.055ZM310.202 581.619L305.816 577.437L298.915 584.674L303.301 588.856L310.202 581.619Z" fill="url(#paint0_linear_91_211)" mask="url(#path-1-inside-1_91_211)"/>
</g>
<defs>
<filter id="filter0_d_91_211" x="0.675781" y="0.453125" width="975.327" height="608.093" filterUnits="userSpaceOnUse" color-interpolation-filters="sRGB">
<feFlood flood-opacity="0" result="BackgroundImageFix"/>
<feColorMatrix in="SourceAlpha" type="matrix" values="0 0 0 0 0 0 0 0 0 0 0 0 0 0 0 0 0 0 127 0" result="hardAlpha"/>
<feOffset/>
<feGaussianBlur stdDeviation="5"/>
<feComposite in2="hardAlpha" operator="out"/>
<feColorMatrix type="matrix" values="0 0 0 0 0 0 0 0 0 0 0 0 0 0 0 0 0 0 0.25 0"/>
<feBlend mode="normal" in2="BackgroundImageFix" result="effect1_dropShadow_91_211"/>
<feBlend mode="normal" in="SourceGraphic" in2="effect1_dropShadow_91_211" result="shape"/>
</filter>
<linearGradient id="paint0_linear_91_211" x1="220.133" y1="3.25146" x2="220.133" y2="515.068" gradientUnits="userSpaceOnUse">
<stop stop-color="#35258D"/>
<stop offset="1" stop-color="#00C0C4"/>
</linearGradient>
</defs>
</svg>
